<?xml version="1.0" encoding="UTF-8" standalone="no"?>
<!-- Generator: Adobe Illustrator 19.0.0, SVG Export Plug-In . SVG Version: 6.00 Build 0)  -->

<svg
   xmlns:dc="http://purl.org/dc/elements/1.1/"
   xmlns:cc="http://creativecommons.org/ns#"
   xmlns:rdf="http://www.w3.org/1999/02/22-rdf-syntax-ns#"
   xmlns:svg="http://www.w3.org/2000/svg"
   xmlns="http://www.w3.org/2000/svg"
   xmlns:sodipodi="http://sodipodi.sourceforge.net/DTD/sodipodi-0.dtd"
   xmlns:inkscape="http://www.inkscape.org/namespaces/inkscape"
   version="1.1"
   id="Capa_1"
   x="0px"
   y="0px"
   viewBox="0 0 982.05184 199.99999"
   xml:space="preserve"
   sodipodi:docname="cha-img3.svg"
   width="982.05188"
   height="200"
   inkscape:version="0.92.4 (5da689c313, 2019-01-14)"><metadata
   id="metadata41"><rdf:RDF><cc:Work
       rdf:about=""><dc:format>image/svg+xml</dc:format><dc:type
         rdf:resource="http://purl.org/dc/dcmitype/StillImage" /><dc:title></dc:title></cc:Work></rdf:RDF></metadata><defs
   id="defs39" /><sodipodi:namedview
   pagecolor="#ffffff"
   bordercolor="#666666"
   borderopacity="1"
   objecttolerance="10"
   gridtolerance="10"
   guidetolerance="10"
   inkscape:pageopacity="0"
   inkscape:pageshadow="2"
   inkscape:window-width="1600"
   inkscape:window-height="837"
   id="namedview37"
   showgrid="false"
   fit-margin-top="0"
   fit-margin-left="0"
   fit-margin-right="0"
   fit-margin-bottom="0"
   inkscape:zoom="0.23046694"
   inkscape:cx="1343.8616"
   inkscape:cy="202.16288"
   inkscape:window-x="-8"
   inkscape:window-y="-8"
   inkscape:window-maximized="1"
   inkscape:current-layer="Capa_1" />

<g
   id="g850"
   transform="matrix(0.39062287,0,0,0.39062287,-11.347343,-4.0920942e-5)"
   style="stroke-width:2.56001401;fill:#c7c7c7;fill-opacity:1"><path
     id="path2"
     d="M 475.211,79.811 386.43,4.996 c -9.015,-7.581 -22.47,-6.397 -30.051,2.619 -7.581,9.016 -6.397,22.47 2.619,30.051 l 44.016,37.408 H 192.159 C 125.324,75.148 71.158,129.314 71.083,196.15 v 38.281 c 0,11.771 9.551,21.322 21.322,21.322 11.771,0 21.322,-9.551 21.322,-21.322 v -38.655 c 0.075,-43.293 35.138,-78.357 78.432,-78.432 h 210.98 l -44.016,37.408 c -9.015,7.581 -10.2,21.036 -2.619,30.051 7.581,9.015 21.036,10.2 30.051,2.619 l 88.781,-74.816 c 9.015,-7.569 10.2,-21.023 2.631,-30.038 -0.798,-0.948 -1.683,-1.833 -2.631,-2.631 z"
     style="fill:#c7c7c7;fill-opacity:1;stroke-width:2.56001401"
     inkscape:connector-curvature="0" /><path
     id="path4"
     d="m 418.975,255.877 c -11.771,0 -21.322,9.551 -21.322,21.322 v 38.655 c -0.075,43.293 -35.138,78.357 -78.432,78.432 h -210.98 l 44.016,-37.408 c 10.312,-5.698 14.053,-18.666 8.354,-28.979 -5.698,-10.312 -18.666,-14.053 -28.979,-8.354 -2.369,1.309 -4.476,3.055 -6.185,5.162 l -88.781,74.816 c -9.015,7.569 -10.2,21.023 -2.631,30.038 0.798,0.948 1.683,1.833 2.631,2.631 l 88.781,74.815 c 9.015,7.581 22.47,6.397 30.051,-2.619 7.581,-9.016 6.397,-22.47 -2.619,-30.051 l -44.016,-37.408 h 210.356 c 66.835,-0.075 121.002,-54.241 121.076,-121.076 V 277.2 c 0.003,-11.784 -9.549,-21.323 -21.32,-21.323 z"
     style="fill:#c7c7c7;fill-opacity:1;stroke-width:2.56001401"
     inkscape:connector-curvature="0" /></g>
<g
   id="g6"
   transform="translate(-119.76149,-258.1649)">
</g>
<g
   id="g8"
   transform="translate(-119.76149,-258.1649)">
</g>
<g
   id="g10"
   transform="translate(-119.76149,-258.1649)">
</g>
<g
   id="g12"
   transform="translate(-119.76149,-258.1649)">
</g>
<g
   id="g14"
   transform="translate(-119.76149,-258.1649)">
</g>
<g
   id="g16"
   transform="translate(-119.76149,-258.1649)">
</g>
<g
   id="g18"
   transform="translate(-119.76149,-258.1649)">
</g>
<g
   id="g20"
   transform="translate(-119.76149,-258.1649)">
</g>
<g
   id="g22"
   transform="translate(-119.76149,-258.1649)">
</g>
<g
   id="g24"
   transform="translate(-119.76149,-258.1649)">
</g>
<g
   id="g26"
   transform="translate(-119.76149,-258.1649)">
</g>
<g
   id="g28"
   transform="translate(-119.76149,-258.1649)">
</g>
<g
   id="g30"
   transform="translate(-119.76149,-258.1649)">
</g>
<g
   id="g32"
   transform="translate(-119.76149,-258.1649)">
</g>
<g
   id="g34"
   transform="translate(-119.76149,-258.1649)">
</g>
<text
   xml:space="preserve"
   style="font-style:normal;font-weight:normal;font-size:140.2570343px;line-height:1.25;font-family:sans-serif;letter-spacing:0px;word-spacing:0px;fill:#c7c7c7;fill-opacity:1;stroke:none;stroke-width:1;"
   x="203.72124"
   y="150.91849"
   id="text854"><tspan
     sodipodi:role="line"
     id="tspan852"
     x="203.72124"
     y="150.91849"
     style="stroke-width:1;fill:#c7c7c7;fill-opacity:1;">EXCHANGE</tspan></text>
</svg>