<?xml version="1.0" encoding="UTF-8" standalone="no"?>
<!-- Created with Inkscape (http://www.inkscape.org/) -->

<svg
   xmlns:dc="http://purl.org/dc/elements/1.1/"
   xmlns:cc="http://creativecommons.org/ns#"
   xmlns:rdf="http://www.w3.org/1999/02/22-rdf-syntax-ns#"
   xmlns:svg="http://www.w3.org/2000/svg"
   xmlns="http://www.w3.org/2000/svg"
   xmlns:sodipodi="http://sodipodi.sourceforge.net/DTD/sodipodi-0.dtd"
   xmlns:inkscape="http://www.inkscape.org/namespaces/inkscape"
   width="448.1416mm"
   height="274.49927mm"
   viewBox="0 0 448.1416 274.49927"
   version="1.1"
   id="svg8"
   inkscape:version="0.92.4 (5da689c313, 2019-01-14)"
   sodipodi:docname="mexoio.svg">
  <defs
     id="defs2">
    <marker
       inkscape:stockid="Arrow2Mstart"
       orient="auto"
       refY="0"
       refX="0"
       id="Arrow2Mstart"
       style="overflow:visible"
       inkscape:isstock="true">
      <path
         id="path2790"
         style="fill:#892ca0;fill-opacity:1;fill-rule:evenodd;stroke:#892ca0;stroke-width:0.625;stroke-linejoin:round;stroke-opacity:1"
         d="M 8.7185878,4.0337352 -2.2072895,0.01601326 8.7185884,-4.0017078 c -1.7454984,2.3720609 -1.7354408,5.6174519 -6e-7,8.035443 z"
         transform="scale(0.6)"
         inkscape:connector-curvature="0" />
    </marker>
    <marker
       inkscape:isstock="true"
       id="marker4306"
       refX="5"
       refY="3"
       orient="auto-start-reverse"
       inkscape:stockid="ExperimentalArrow">
      <path
         style="fill:context-stroke;stroke:#949494;stroke-opacity:1"
         d="M 10,3 0,6 V 0 Z"
         id="path4304"
         inkscape:connector-curvature="0" />
    </marker>
    <marker
       inkscape:stockid="ExperimentalArrow"
       orient="auto-start-reverse"
       refY="3"
       refX="5"
       id="marker4254"
       inkscape:isstock="true">
      <path
         id="path4252"
         d="M 10,3 0,6 V 0 Z"
         style="fill:context-stroke;stroke:#949494;stroke-opacity:1"
         inkscape:connector-curvature="0" />
    </marker>
    <marker
       inkscape:stockid="Arrow2Lstart"
       orient="auto"
       refY="0"
       refX="0"
       id="marker3109"
       style="overflow:visible"
       inkscape:isstock="true">
      <path
         id="path3107"
         style="fill:#949494;fill-opacity:1;fill-rule:evenodd;stroke:#949494;stroke-width:0.625;stroke-linejoin:round;stroke-opacity:1"
         d="M 8.7185878,4.0337352 -2.2072895,0.01601326 8.7185884,-4.0017078 c -1.7454984,2.3720609 -1.7354408,5.6174519 -6e-7,8.035443 z"
         transform="matrix(1.1,0,0,1.1,1.1,0)"
         inkscape:connector-curvature="0" />
    </marker>
    <marker
       inkscape:stockid="Arrow2Lend"
       orient="auto"
       refY="0"
       refX="0"
       id="Arrow2Lend"
       style="overflow:visible"
       inkscape:isstock="true">
      <path
         id="path2787"
         style="fill:#949494;fill-opacity:1;fill-rule:evenodd;stroke:#949494;stroke-width:0.625;stroke-linejoin:round;stroke-opacity:1"
         d="M 8.7185878,4.0337352 -2.2072895,0.01601326 8.7185884,-4.0017078 c -1.7454984,2.3720609 -1.7354408,5.6174519 -6e-7,8.035443 z"
         transform="matrix(-1.1,0,0,-1.1,-1.1,0)"
         inkscape:connector-curvature="0" />
    </marker>
    <marker
       inkscape:stockid="Arrow2Lstart"
       orient="auto"
       refY="0"
       refX="0"
       id="Arrow2Lstart"
       style="overflow:visible"
       inkscape:isstock="true">
      <path
         id="path2784"
         style="fill:#949494;fill-opacity:1;fill-rule:evenodd;stroke:#949494;stroke-width:0.625;stroke-linejoin:round;stroke-opacity:1"
         d="M 8.7185878,4.0337352 -2.2072895,0.01601326 8.7185884,-4.0017078 c -1.7454984,2.3720609 -1.7354408,5.6174519 -6e-7,8.035443 z"
         transform="matrix(1.1,0,0,1.1,1.1,0)"
         inkscape:connector-curvature="0" />
    </marker>
    <clipPath
       clipPathUnits="userSpaceOnUse"
       id="clipPath947">
      <rect
         style="opacity:0.34299999;fill:#d5f6ff;fill-opacity:1;stroke:none;stroke-width:0.99999994;stroke-linecap:round;stroke-linejoin:round;stroke-miterlimit:2.79999995;stroke-dasharray:none;stroke-opacity:1"
         id="rect949"
         width="134.1693"
         height="140.58374"
         x="60.402905"
         y="290.05099" />
    </clipPath>
    <filter
       inkscape:collect="always"
       style="color-interpolation-filters:sRGB"
       id="filter988"
       x="-0.0016970222"
       width="1.003394"
       y="-0.0040972545"
       height="1.0081944">
      <feGaussianBlur
         inkscape:collect="always"
         stdDeviation="0.18260941"
         id="feGaussianBlur990" />
    </filter>
    <clipPath
       clipPathUnits="userSpaceOnUse"
       id="clipPath1015">
      <rect
         style="opacity:0.42600002;fill:#46428a;fill-opacity:1;stroke:none;stroke-width:1.00000012;stroke-linecap:round;stroke-linejoin:round;stroke-miterlimit:2.79999995;stroke-dasharray:none;stroke-opacity:1"
         id="rect1017"
         width="171.22321"
         height="155.72618"
         x="-333.375"
         y="358.9881" />
    </clipPath>
    <clipPath
       clipPathUnits="userSpaceOnUse"
       id="clipPath1021">
      <rect
         style="opacity:0.42600002;fill:#dca352;fill-opacity:1;stroke:none;stroke-width:0.99999994;stroke-linecap:round;stroke-linejoin:round;stroke-miterlimit:2.79999995;stroke-dasharray:none;stroke-opacity:1"
         id="rect1023"
         width="138.43379"
         height="142.11905"
         x="-162.24629"
         y="361.25595" />
    </clipPath>
    <clipPath
       clipPathUnits="userSpaceOnUse"
       id="clipPath1015-3">
      <rect
         style="opacity:0.42600002;fill:#46428a;fill-opacity:1;stroke:none;stroke-width:1.00000012;stroke-linecap:round;stroke-linejoin:round;stroke-miterlimit:2.79999995;stroke-dasharray:none;stroke-opacity:1"
         id="rect1017-5"
         width="171.22321"
         height="155.72618"
         x="-333.375"
         y="358.9881" />
    </clipPath>
    <clipPath
       clipPathUnits="userSpaceOnUse"
       id="clipPath1015-3-3">
      <rect
         style="opacity:0.42600002;fill:#46428a;fill-opacity:1;stroke:none;stroke-width:1.00000012;stroke-linecap:round;stroke-linejoin:round;stroke-miterlimit:2.79999995;stroke-dasharray:none;stroke-opacity:1"
         id="rect1017-5-7"
         width="171.22321"
         height="155.72618"
         x="-333.375"
         y="358.9881" />
    </clipPath>
    <clipPath
       clipPathUnits="userSpaceOnUse"
       id="clipPath1015-3-3-5">
      <rect
         style="opacity:0.42600002;fill:#46428a;fill-opacity:1;stroke:none;stroke-width:1.00000012;stroke-linecap:round;stroke-linejoin:round;stroke-miterlimit:2.79999995;stroke-dasharray:none;stroke-opacity:1"
         id="rect1017-5-7-8"
         width="171.22321"
         height="155.72618"
         x="-333.375"
         y="358.9881" />
    </clipPath>
    <clipPath
       clipPathUnits="userSpaceOnUse"
       id="clipPath1021-1">
      <rect
         style="opacity:0.42600002;fill:#dca352;fill-opacity:1;stroke:none;stroke-width:0.99999994;stroke-linecap:round;stroke-linejoin:round;stroke-miterlimit:2.79999995;stroke-dasharray:none;stroke-opacity:1"
         id="rect1023-5"
         width="138.43379"
         height="142.11905"
         x="-162.24629"
         y="361.25595" />
    </clipPath>
    <clipPath
       clipPathUnits="userSpaceOnUse"
       id="clipPath1015-3-3-5-3">
      <rect
         style="opacity:0.42600002;fill:#46428a;fill-opacity:1;stroke:none;stroke-width:1.00000012;stroke-linecap:round;stroke-linejoin:round;stroke-miterlimit:2.79999995;stroke-dasharray:none;stroke-opacity:1"
         id="rect1017-5-7-8-1"
         width="171.22321"
         height="155.72618"
         x="-333.375"
         y="358.9881" />
    </clipPath>
    <clipPath
       clipPathUnits="userSpaceOnUse"
       id="clipPath1259">
      <rect
         style="opacity:0.52899996;fill:#973950;fill-opacity:1;stroke:none;stroke-width:0.99999994;stroke-linecap:round;stroke-linejoin:round;stroke-miterlimit:2.79999995;stroke-dasharray:none;stroke-opacity:1"
         id="rect1261"
         width="110.54987"
         height="126.71518"
         x="-18.772619"
         y="423.1937" />
    </clipPath>
    <clipPath
       clipPathUnits="userSpaceOnUse"
       id="clipPath1354">
      <rect
         style="opacity:0.52899996;fill:#784421;fill-opacity:1;stroke:none;stroke-width:0.99999994;stroke-linecap:round;stroke-linejoin:round;stroke-miterlimit:2.79999995;stroke-dasharray:none;stroke-opacity:1"
         id="rect1356"
         width="125.15079"
         height="124.10787"
         x="-227.61151"
         y="369.81659" />
    </clipPath>
    <clipPath
       clipPathUnits="userSpaceOnUse"
       id="clipPath1015-3-3-5-9">
      <rect
         style="opacity:0.42600002;fill:#46428a;fill-opacity:1;stroke:none;stroke-width:1.00000012;stroke-linecap:round;stroke-linejoin:round;stroke-miterlimit:2.79999995;stroke-dasharray:none;stroke-opacity:1"
         id="rect1017-5-7-8-15"
         width="171.22321"
         height="155.72618"
         x="-333.375"
         y="358.9881" />
    </clipPath>
    <clipPath
       clipPathUnits="userSpaceOnUse"
       id="clipPath1021-7">
      <rect
         style="opacity:0.42600002;fill:#dca352;fill-opacity:1;stroke:none;stroke-width:0.99999994;stroke-linecap:round;stroke-linejoin:round;stroke-miterlimit:2.79999995;stroke-dasharray:none;stroke-opacity:1"
         id="rect1023-7"
         width="138.43379"
         height="142.11905"
         x="-162.24629"
         y="361.25595" />
    </clipPath>
    <clipPath
       clipPathUnits="userSpaceOnUse"
       id="clipPath2323">
      <rect
         style="opacity:1;fill:#ffff00;fill-opacity:0;stroke:#7a82a0;stroke-width:0.99999994;stroke-linecap:round;stroke-linejoin:round;stroke-miterlimit:2.79999995;stroke-dasharray:none;stroke-opacity:0"
         id="rect2325"
         width="227.88721"
         height="482.28558"
         x="-1476.1083"
         y="175.5141" />
    </clipPath>
    <clipPath
       clipPathUnits="userSpaceOnUse"
       id="clipPath2334">
      <rect
         style="opacity:1;fill:#ffff00;fill-opacity:0;stroke:#7a82a0;stroke-width:0.99999994;stroke-linecap:round;stroke-linejoin:round;stroke-miterlimit:2.79999995;stroke-dasharray:none;stroke-opacity:0"
         id="rect2336"
         width="238.21341"
         height="569.46417"
         x="-659.64392"
         y="89.266838" />
    </clipPath>
    <clipPath
       clipPathUnits="userSpaceOnUse"
       id="clipPath948">
      <rect
         style="opacity:0.34599998;fill:#ff2a7f;fill-opacity:1;stroke:#7a82a0;stroke-width:0.99999994;stroke-linecap:round;stroke-linejoin:round;stroke-miterlimit:2.79999995;stroke-dasharray:none;stroke-opacity:0"
         id="rect950"
         width="214.93457"
         height="226.01367"
         x="-704.6308"
         y="711.3584" />
    </clipPath>
    <clipPath
       clipPathUnits="userSpaceOnUse"
       id="clipPath969">
      <rect
         style="opacity:0.34599998;fill:#ff2a7f;fill-opacity:1;stroke:#7a82a0;stroke-width:0.99999994;stroke-linecap:round;stroke-linejoin:round;stroke-miterlimit:2.79999995;stroke-dasharray:none;stroke-opacity:0"
         id="rect971"
         width="150.67578"
         height="208.28711"
         x="-301.35156"
         y="795.55957" />
    </clipPath>
    <clipPath
       clipPathUnits="userSpaceOnUse"
       id="clipPath993">
      <rect
         style="opacity:0.34599998;fill:#ff2a7f;fill-opacity:1;stroke:#7a82a0;stroke-width:0.99999994;stroke-linecap:round;stroke-linejoin:round;stroke-miterlimit:2.79999995;stroke-dasharray:none;stroke-opacity:0"
         id="rect995"
         width="234.87695"
         height="334.61395"
         x="-762.24225"
         y="726.84406" />
    </clipPath>
    <clipPath
       clipPathUnits="userSpaceOnUse"
       id="clipPath999">
      <rect
         style="opacity:0.34599998;fill:#ff2a7f;fill-opacity:1;stroke:#7a82a0;stroke-width:0.99999994;stroke-linecap:round;stroke-linejoin:round;stroke-miterlimit:2.79999995;stroke-dasharray:none;stroke-opacity:0"
         id="rect1001"
         width="252.60352"
         height="376.68945"
         x="-1429.2041"
         y="946.23535" />
    </clipPath>
    <clipPath
       clipPathUnits="userSpaceOnUse"
       id="clipPath1313">
      <rect
         style="opacity:0.34599998;fill:#7dbb2b;fill-opacity:1;stroke:#7a82a0;stroke-width:0.99999994;stroke-linecap:round;stroke-linejoin:round;stroke-miterlimit:2.79999995;stroke-dasharray:none;stroke-opacity:0"
         id="rect1315"
         width="364.47778"
         height="329.16736"
         x="-1679.2792"
         y="516.27191" />
    </clipPath>
    <clipPath
       clipPathUnits="userSpaceOnUse"
       id="clipPath1015-9">
      <rect
         style="opacity:0.42600002;fill:#46428a;fill-opacity:1;stroke:none;stroke-width:1.00000012;stroke-linecap:round;stroke-linejoin:round;stroke-miterlimit:2.79999995;stroke-dasharray:none;stroke-opacity:1"
         id="rect1017-1"
         width="171.22321"
         height="155.72618"
         x="-333.375"
         y="358.9881" />
    </clipPath>
    <clipPath
       clipPathUnits="userSpaceOnUse"
       id="clipPath1015-3-4">
      <rect
         style="opacity:0.42600002;fill:#46428a;fill-opacity:1;stroke:none;stroke-width:1.00000012;stroke-linecap:round;stroke-linejoin:round;stroke-miterlimit:2.79999995;stroke-dasharray:none;stroke-opacity:1"
         id="rect1017-5-4"
         width="171.22321"
         height="155.72618"
         x="-333.375"
         y="358.9881" />
    </clipPath>
    <clipPath
       clipPathUnits="userSpaceOnUse"
       id="clipPath1015-3-3-6">
      <rect
         style="opacity:0.42600002;fill:#46428a;fill-opacity:1;stroke:none;stroke-width:1.00000012;stroke-linecap:round;stroke-linejoin:round;stroke-miterlimit:2.79999995;stroke-dasharray:none;stroke-opacity:1"
         id="rect1017-5-7-1"
         width="171.22321"
         height="155.72618"
         x="-333.375"
         y="358.9881" />
    </clipPath>
    <clipPath
       clipPathUnits="userSpaceOnUse"
       id="clipPath1015-3-3-5-4">
      <rect
         style="opacity:0.42600002;fill:#46428a;fill-opacity:1;stroke:none;stroke-width:1.00000012;stroke-linecap:round;stroke-linejoin:round;stroke-miterlimit:2.79999995;stroke-dasharray:none;stroke-opacity:1"
         id="rect1017-5-7-8-6"
         width="171.22321"
         height="155.72618"
         x="-333.375"
         y="358.9881" />
    </clipPath>
    <clipPath
       clipPathUnits="userSpaceOnUse"
       id="clipPath1015-3-3-5-9-6">
      <rect
         style="opacity:0.42600002;fill:#46428a;fill-opacity:1;stroke:none;stroke-width:1.00000012;stroke-linecap:round;stroke-linejoin:round;stroke-miterlimit:2.79999995;stroke-dasharray:none;stroke-opacity:1"
         id="rect1017-5-7-8-15-6"
         width="171.22321"
         height="155.72618"
         x="-333.375"
         y="358.9881" />
    </clipPath>
    <clipPath
       clipPathUnits="userSpaceOnUse"
       id="clipPath1021-76">
      <rect
         style="opacity:0.42600002;fill:#dca352;fill-opacity:1;stroke:none;stroke-width:0.99999994;stroke-linecap:round;stroke-linejoin:round;stroke-miterlimit:2.79999995;stroke-dasharray:none;stroke-opacity:1"
         id="rect1023-2"
         width="138.43379"
         height="142.11905"
         x="-162.24629"
         y="361.25595" />
    </clipPath>
    <clipPath
       clipPathUnits="userSpaceOnUse"
       id="clipPath1021-7-8">
      <rect
         style="opacity:0.42600002;fill:#dca352;fill-opacity:1;stroke:none;stroke-width:0.99999994;stroke-linecap:round;stroke-linejoin:round;stroke-miterlimit:2.79999995;stroke-dasharray:none;stroke-opacity:1"
         id="rect1023-7-8"
         width="138.43379"
         height="142.11905"
         x="-162.24629"
         y="361.25595" />
    </clipPath>
    <clipPath
       clipPathUnits="userSpaceOnUse"
       id="clipPath2655">
      <rect
         style="opacity:0.98999999;fill:#550000;fill-opacity:1;stroke:none;stroke-width:0.46499997;stroke-linecap:round;stroke-linejoin:round;stroke-miterlimit:4;stroke-dasharray:none;stroke-opacity:1"
         id="rect2657"
         width="392.94162"
         height="159.64328"
         x="-175.92484"
         y="331.67133" />
    </clipPath>
    <clipPath
       clipPathUnits="userSpaceOnUse"
       id="clipPath2655-6">
      <rect
         style="opacity:0.98999999;fill:#550000;fill-opacity:1;stroke:none;stroke-width:0.46499997;stroke-linecap:round;stroke-linejoin:round;stroke-miterlimit:4;stroke-dasharray:none;stroke-opacity:1"
         id="rect2657-5"
         width="392.94162"
         height="159.64328"
         x="-175.92484"
         y="331.67133" />
    </clipPath>
    <clipPath
       clipPathUnits="userSpaceOnUse"
       id="clipPath3511">
      <rect
         style="opacity:0.98999999;fill:none;fill-opacity:1;stroke:#949494;stroke-width:3.49999976;stroke-linecap:round;stroke-linejoin:round;stroke-miterlimit:4;stroke-dasharray:20.99999958, 20.99999958;stroke-dashoffset:0;stroke-opacity:1"
         id="rect3513"
         width="139.96939"
         height="276.43445"
         x="190.05019"
         y="860.44678" />
    </clipPath>
    <clipPath
       clipPathUnits="userSpaceOnUse"
       id="clipPath2655-9">
      <rect
         style="opacity:0.98999999;fill:#550000;fill-opacity:1;stroke:none;stroke-width:0.46499997;stroke-linecap:round;stroke-linejoin:round;stroke-miterlimit:4;stroke-dasharray:none;stroke-opacity:1"
         id="rect2657-7"
         width="392.94162"
         height="159.64328"
         x="-175.92484"
         y="331.67133" />
    </clipPath>
    <clipPath
       clipPathUnits="userSpaceOnUse"
       id="clipPath5231">
      <rect
         style="opacity:0.98999999;fill:#892ca0;fill-opacity:0.99877457;stroke:#892ca0;stroke-width:5;stroke-linecap:round;stroke-linejoin:round;stroke-miterlimit:4;stroke-dasharray:none;stroke-dashoffset:0;stroke-opacity:1"
         id="rect5233"
         width="185.4035"
         height="236.12312"
         x="-230.12294"
         y="259.56534" />
    </clipPath>
    <clipPath
       clipPathUnits="userSpaceOnUse"
       id="clipPath5231-7">
      <rect
         style="opacity:0.98999999;fill:#892ca0;fill-opacity:0.99877457;stroke:#892ca0;stroke-width:5;stroke-linecap:round;stroke-linejoin:round;stroke-miterlimit:4;stroke-dasharray:none;stroke-dashoffset:0;stroke-opacity:1"
         id="rect5233-2"
         width="185.4035"
         height="236.12312"
         x="-230.12294"
         y="259.56534" />
    </clipPath>
    <clipPath
       clipPathUnits="userSpaceOnUse"
       id="clipPath5231-7-6">
      <rect
         style="opacity:0.98999999;fill:#892ca0;fill-opacity:0.99877457;stroke:#892ca0;stroke-width:5;stroke-linecap:round;stroke-linejoin:round;stroke-miterlimit:4;stroke-dasharray:none;stroke-dashoffset:0;stroke-opacity:1"
         id="rect5233-2-4"
         width="185.4035"
         height="236.12312"
         x="-230.12294"
         y="259.56534" />
    </clipPath>
    <clipPath
       clipPathUnits="userSpaceOnUse"
       id="clipPath5231-4">
      <rect
         style="opacity:0.98999999;fill:#892ca0;fill-opacity:0.99877457;stroke:#892ca0;stroke-width:5;stroke-linecap:round;stroke-linejoin:round;stroke-miterlimit:4;stroke-dasharray:none;stroke-dashoffset:0;stroke-opacity:1"
         id="rect5233-9"
         width="185.4035"
         height="236.12312"
         x="-230.12294"
         y="259.56534" />
    </clipPath>
    <clipPath
       clipPathUnits="userSpaceOnUse"
       id="clipPath5231-4-0">
      <rect
         style="opacity:0.98999999;fill:#892ca0;fill-opacity:0.99877457;stroke:#892ca0;stroke-width:5;stroke-linecap:round;stroke-linejoin:round;stroke-miterlimit:4;stroke-dasharray:none;stroke-dashoffset:0;stroke-opacity:1"
         id="rect5233-9-5"
         width="185.4035"
         height="236.12312"
         x="-230.12294"
         y="259.56534" />
    </clipPath>
    <marker
       inkscape:stockid="Arrow2Mstart"
       orient="auto"
       refY="0"
       refX="0"
       id="Arrow2Mstart-1"
       style="overflow:visible"
       inkscape:isstock="true">
      <path
         inkscape:connector-curvature="0"
         id="path2790-5"
         style="fill:#892ca0;fill-opacity:1;fill-rule:evenodd;stroke:#892ca0;stroke-width:0.625;stroke-linejoin:round;stroke-opacity:1"
         d="M 8.7185878,4.0337352 -2.2072895,0.01601326 8.7185884,-4.0017078 c -1.7454984,2.3720609 -1.7354408,5.6174519 -6e-7,8.035443 z"
         transform="scale(0.6)" />
    </marker>
  </defs>
  <sodipodi:namedview
     id="base"
     pagecolor="#ffffff"
     bordercolor="#666666"
     borderopacity="1.0"
     inkscape:pageopacity="0.0"
     inkscape:pageshadow="2"
     inkscape:zoom="0.024777244"
     inkscape:cx="1119.9011"
     inkscape:cy="-463.79668"
     inkscape:document-units="mm"
     inkscape:current-layer="layer1"
     showgrid="false"
     inkscape:window-width="1600"
     inkscape:window-height="837"
     inkscape:window-x="-8"
     inkscape:window-y="-8"
     inkscape:window-maximized="1"
     showguides="false"
     inkscape:guide-bbox="true"
     fit-margin-top="0"
     fit-margin-left="0"
     fit-margin-right="0"
     fit-margin-bottom="0">
    <sodipodi:guide
       position="-840.73243,-1852.0579"
       orientation="0,1"
       id="guide7327"
       inkscape:locked="false" />
    <sodipodi:guide
       position="227.65782,-2180.7934"
       orientation="1,0"
       id="guide7329"
       inkscape:locked="false" />
    <sodipodi:guide
       position="-981.98593,-1597.8016"
       orientation="0,1"
       id="guide7331"
       inkscape:locked="false" />
    <sodipodi:guide
       position="395.63166,-1469.6345"
       orientation="1,0"
       id="guide7333"
       inkscape:locked="false" />
    <sodipodi:guide
       position="56.865562,-1658.6148"
       orientation="1,0"
       id="guide7335"
       inkscape:locked="false" />
    <sodipodi:guide
       position="1346.4648,-2263.28"
       orientation="0,1"
       id="guide7337"
       inkscape:locked="false" />
    <sodipodi:guide
       position="1239.5467,-2488.9829"
       orientation="0,1"
       id="guide7356"
       inkscape:locked="false" />
    <sodipodi:guide
       position="751.2501,-1955.1648"
       orientation="1,0"
       id="guide1690"
       inkscape:locked="false" />
    <sodipodi:guide
       position="-300.35538,-1689.8121"
       orientation="1,0"
       id="guide1698"
       inkscape:locked="false" />
    <sodipodi:guide
       position="-663.75927,-2340.699"
       orientation="1,0"
       id="guide2382"
       inkscape:locked="false" />
    <sodipodi:guide
       position="1108.8686,-2415.4484"
       orientation="1,0"
       id="guide2384"
       inkscape:locked="false" />
    <sodipodi:guide
       position="556.25722,-1728.0211"
       orientation="1,0"
       id="guide2724"
       inkscape:locked="false" />
    <sodipodi:guide
       position="-100.46939,-1458.3895"
       orientation="1,0"
       id="guide2726"
       inkscape:locked="false" />
    <sodipodi:guide
       position="1341.1256,-1433.0281"
       orientation="0,1"
       id="guide2747"
       inkscape:locked="false" />
    <sodipodi:guide
       position="1220.9927,-760.28376"
       orientation="0,1"
       id="guide3247"
       inkscape:locked="false" />
  </sodipodi:namedview>
  <metadata
     id="metadata5">
    <rdf:RDF>
      <cc:Work
         rdf:about="">
        <dc:format>image/svg+xml</dc:format>
        <dc:type
           rdf:resource="http://purl.org/dc/dcmitype/StillImage" />
        <dc:title></dc:title>
      </cc:Work>
    </rdf:RDF>
  </metadata>
  <g
     inkscape:label="Layer 1"
     inkscape:groupmode="layer"
     id="layer1"
     transform="translate(-116.48711,1218.3147)">
    <flowRoot
       xml:space="preserve"
       id="flowRoot1563"
       style="font-style:normal;font-weight:normal;font-size:40px;line-height:1.25;font-family:sans-serif;letter-spacing:0px;word-spacing:0px;fill:#1a1a1a;fill-opacity:1;stroke:none"><flowRegion
         id="flowRegion1565"
         style="fill:#1a1a1a"><rect
           id="rect1567"
           width="150.65604"
           height="160.98674"
           x="428.29361"
           y="864.2522"
           style="fill:#1a1a1a" /></flowRegion><flowPara
         id="flowPara1569" /></flowRoot>    <g
       id="g1802"
       transform="translate(-3.7754133,-662.58503)">
      <path
         id="path899"
         transform="scale(0.26458333)"
         d="m 1781.623,-2097.5293 c -59.3826,-0.016 -118.3306,15.1198 -175.7753,45.3906 -39.7751,20.9597 -89.7668,66.6503 -156.4161,142.9551 l -32.1504,36.8066 -44.5214,-52.9472 c -73.7184,-87.6709 -110.1728,-122.4142 -146.6836,-139.7949 -53.8751,-25.6469 -72.8851,-30.1199 -129.3125,-30.4356 -62.5373,-0.3499 -115.55336,14.1162 -159.08401,43.4102 -14.50996,9.7645 -28.30351,17.7539 -30.65235,17.7539 -2.34876,0 -16.43938,-8.1884 -31.3125,-18.1973 -44.93132,-30.2365 -90.59634,-42.6955 -155.75195,-42.4902 -60.01961,0.1888 -102.73495,10.7971 -146.97851,36.498 -50.7554,29.4837 -104.27856,103.9196 -112.06641,155.8535 -3.95318,26.3614 -4.94242,491.3017 -1.05859,497.5586 v 0 c 3.23757,5.216 143.7157,4.6464 152.23242,-0.6172 4.70832,-2.91 6.32226,-63.2796 6.32226,-236.6152 0,-257.1259 -6.27419,-262.5066 27.97852,-288.4102 58.12786,-43.959 155.01283,-23.8995 173.26562,41.8555 3.87997,13.9758 7.14641,111.884 7.16602,262.0976 l 0.0332,228.4844 h 80.16992 80.16993 v -236.998 l -1.23438,-226.4981 c 0,0 -5.5e-4,-35.5612 9.95508,-48.8789 19.18033,-25.6577 38.07263,-44.9344 84.89063,-45.0469 57.4272,-0.1378 65.7223,2.5702 185.6523,145.9492 34.5769,41.3378 49.045,54.6524 49.045,54.6524 -3.7479,4.4093 -50.7071,73.4082 -50.7071,73.4082 -2.5547,2.9272 -60.3533,76.9814 -79.8808,93.0566 -5.3818,5.2839 -28.3237,18.3591 -42.916,25.2871 l -26.5313,12.5957 v 73.5645 67.3887 l 14.6973,-0.066 c 24.4761,-0.1057 65.2157,-13.6755 99.8379,-32.1289 32.3378,-17.236 76.668,-56.8087 122.4668,-113.9903 11.7563,-14.6781 33.547,-44.4493 43.8925,-55.5898 18.5061,-19.9283 18.9801,-21.3297 29.3985,-11.4336 5.8241,5.5322 22.5825,31.7449 34.2207,46.1719 43.7846,54.2766 106.8291,111.4263 145.4668,131.8652 108.707,57.5048 248.3373,57.5048 355.7617,0 132.5613,-70.9607 206.343,-223.0297 178.3183,-367.5234 -20.1106,-103.69 -93.6682,-198.3099 -190.289,-244.7735 -55.6669,-26.7694 -111.8355,-40.155 -167.6192,-40.1699 z m 6.375,145.9785 c 5.73,-0.024 11.5052,0.1363 17.3145,0.4766 146.253,8.568 228.4591,167.3603 160.9863,292.625 -19.1514,35.5551 -63.8531,75.0317 -101.2539,89.416 -19.9167,7.66 -45.7463,12.4133 -73.4726,13.5215 -66.557,2.6601 -110.8386,-15.6975 -157.8496,-65.4375 -35.9528,-38.0397 -115.3594,-125.2714 -115.3594,-130.2988 0,-4.639 105.558,-127.8147 124.9707,-146.3653 38.0532,-36.363 89.2741,-53.7072 144.664,-53.9375 z"
         style="opacity:1;fill:#06ceab;fill-opacity:1;stroke-width:3.77952695;filter:url(#filter988)"
         inkscape:connector-curvature="0" />
      <g
         style="fill:#06ceab;fill-opacity:1;stroke-width:0.35117829"
         transform="matrix(2.8475568,0,0,2.8475568,79.241639,-1004.1496)"
         id="g1591">
        <circle
           style="opacity:1;fill:#06ceab;fill-opacity:1;stroke:none;stroke-width:0.35117829;stroke-linecap:round;stroke-linejoin:round;stroke-miterlimit:2.79999995;stroke-dasharray:none;stroke-opacity:1"
           id="path1529-3-5"
           cx="126.53045"
           cy="251.55836"
           r="2.1076372" />
        <g
           aria-label="m e x o     o"
           style="font-style:normal;font-variant:normal;font-weight:bold;font-stretch:normal;font-size:29.32782936px;line-height:1.25;font-family:Arial;-inkscape-font-specification:'Arial, Bold';font-variant-ligatures:normal;font-variant-caps:normal;font-variant-numeric:normal;font-feature-settings:normal;text-align:start;letter-spacing:0px;word-spacing:0px;writing-mode:lr-tb;text-anchor:start;fill:#06ceab;fill-opacity:1;stroke:none;stroke-width:0.09291589"
           id="text1509-2">
          <path
             inkscape:connector-curvature="0"
             d="m 14.705533,238.32173 h 3.708939 v 2.07644 q 1.990512,-2.42012 4.739996,-2.42012 1.460664,0 2.534681,0.60145 1.074017,0.60145 1.761388,1.81867 1.002416,-1.21722 2.162355,-1.81867 1.159938,-0.60145 2.477399,-0.60145 1.675467,0 2.835406,0.68737 1.159938,0.67305 1.732747,1.99051 0.415287,0.97378 0.415287,3.15045 v 9.72344 h -4.023984 v -8.69238 q 0,-2.2626 -0.415287,-2.92133 -0.558489,-0.85921 -1.718428,-0.85921 -0.844893,0 -1.589545,0.51552 -0.744652,0.51553 -1.074017,1.51795 -0.329366,0.98809 -0.329366,3.13613 v 7.30332 H 23.89912 v -8.33438 q 0,-2.21963 -0.214803,-2.86404 -0.214804,-0.64441 -0.673051,-0.95946 -0.443927,-0.31504 -1.21722,-0.31504 -0.930814,0 -1.675466,0.5012 -0.744652,0.50121 -1.074018,1.44635 -0.315045,0.94513 -0.315045,3.13613 v 7.38924 h -4.023984 z"
             style="font-style:normal;font-variant:normal;font-weight:bold;font-stretch:normal;font-size:29.32782936px;font-family:Arial;-inkscape-font-specification:'Arial, Bold';font-variant-ligatures:normal;font-variant-caps:normal;font-variant-numeric:normal;font-feature-settings:normal;text-align:start;writing-mode:lr-tb;text-anchor:start;fill:#06ceab;fill-opacity:1;stroke-width:0.09291589"
             id="path1571" />
          <path
             inkscape:connector-curvature="0"
             d="m 58.009907,248.68958 4.009665,0.67305 q -0.773293,2.20531 -2.44876,3.36525 -1.661146,1.14562 -4.167186,1.14562 -3.966704,0 -5.871294,-2.59196 -1.503624,-2.07643 -1.503624,-5.2412 0,-3.78054 1.976191,-5.91426 1.976192,-2.14803 4.99776,-2.14803 3.393895,0 5.355766,2.24827 1.961871,2.23396 1.87595,6.85939 H 52.152934 q 0.04296,1.79003 0.973775,2.79245 0.930815,0.98809 2.319877,0.98809 0.945135,0 1.589546,-0.51553 0.64441,-0.51552 0.973775,-1.66114 z m 0.229124,-4.06695 q -0.04296,-1.74706 -0.902174,-2.64924 -0.859214,-0.91649 -2.090754,-0.91649 -1.317461,0 -2.176675,0.95945 -0.859213,0.95946 -0.844893,2.60628 z"
             style="font-style:normal;font-variant:normal;font-weight:bold;font-stretch:normal;font-size:29.32782936px;font-family:Arial;-inkscape-font-specification:'Arial, Bold';font-variant-ligatures:normal;font-variant-caps:normal;font-variant-numeric:normal;font-feature-settings:normal;text-align:start;writing-mode:lr-tb;text-anchor:start;fill:#06ceab;fill-opacity:1;stroke-width:0.09291589"
             id="path1573" />
          <path
             inkscape:connector-curvature="0"
             d="m 71.728686,253.52982 5.484647,-7.83317 -5.255524,-7.37492 h 4.911839 l 2.692203,4.18151 2.835405,-4.18151 h 4.725676 l -5.155283,7.20308 5.62785,8.00501 H 82.65502 l -3.093169,-4.71136 -3.12181,4.71136 z"
             style="font-style:normal;font-variant:normal;font-weight:bold;font-stretch:normal;font-size:29.32782936px;font-family:Arial;-inkscape-font-specification:'Arial, Bold';font-variant-ligatures:normal;font-variant-caps:normal;font-variant-numeric:normal;font-feature-settings:normal;text-align:start;writing-mode:lr-tb;text-anchor:start;fill:#06ceab;fill-opacity:1;stroke-width:0.09291589"
             id="path1575" />
          <path
             inkscape:connector-curvature="0"
             d="m 97.190052,245.71097 q 0,-2.00483 0.988095,-3.88078 0.988096,-1.87595 2.792443,-2.86405 1.81867,-0.98809 4.05263,-0.98809 3.45117,0 5.65649,2.24827 2.20531,2.23396 2.20531,5.65649 0,3.45118 -2.23395,5.72809 -2.21964,2.2626 -5.59921,2.2626 -2.09076,0 -3.99535,-0.94513 -1.890267,-0.94514 -2.878363,-2.76381 -0.988095,-1.83299 -0.988095,-4.45359 z m 4.124228,0.2148 q 0,2.2626 1.07401,3.4655 1.07402,1.2029 2.64925,1.2029 1.57522,0 2.63492,-1.2029 1.07402,-1.2029 1.07402,-3.49414 0,-2.23395 -1.07402,-3.43685 -1.0597,-1.2029 -2.63492,-1.2029 -1.57523,0 -2.64925,1.2029 -1.07401,1.2029 -1.07401,3.46549 z"
             style="font-style:normal;font-variant:normal;font-weight:bold;font-stretch:normal;font-size:29.32782936px;font-family:Arial;-inkscape-font-specification:'Arial, Bold';font-variant-ligatures:normal;font-variant-caps:normal;font-variant-numeric:normal;font-feature-settings:normal;text-align:start;writing-mode:lr-tb;text-anchor:start;fill:#06ceab;fill-opacity:1;stroke-width:0.09291589"
             id="path1577" />
          <path
             inkscape:connector-curvature="0"
             d="m 155.78843,245.71097 q 0,-2.00483 0.98809,-3.88078 0.9881,-1.87595 2.79245,-2.86405 1.81866,-0.98809 4.05262,-0.98809 3.45118,0 5.65649,2.24827 2.20532,2.23396 2.20532,5.65649 0,3.45118 -2.23396,5.72809 -2.21964,2.2626 -5.59921,2.2626 -2.09075,0 -3.99534,-0.94513 -1.89027,-0.94514 -2.87837,-2.76381 -0.98809,-1.83299 -0.98809,-4.45359 z m 4.12422,0.2148 q 0,2.2626 1.07402,3.4655 1.07402,1.2029 2.64924,1.2029 1.57523,0 2.63492,-1.2029 1.07402,-1.2029 1.07402,-3.49414 0,-2.23395 -1.07402,-3.43685 -1.05969,-1.2029 -2.63492,-1.2029 -1.57522,0 -2.64924,1.2029 -1.07402,1.2029 -1.07402,3.46549 z"
             style="font-style:normal;font-variant:normal;font-weight:bold;font-stretch:normal;font-size:29.32782936px;font-family:Arial;-inkscape-font-specification:'Arial, Bold';font-variant-ligatures:normal;font-variant-caps:normal;font-variant-numeric:normal;font-feature-settings:normal;text-align:start;writing-mode:lr-tb;text-anchor:start;fill:#06ceab;fill-opacity:1;stroke-width:0.09291589"
             id="path1579" />
        </g>
        <circle
           style="opacity:1;fill:#06ceab;fill-opacity:1;stroke:none;stroke-width:0.35117829;stroke-linecap:round;stroke-linejoin:round;stroke-miterlimit:2.79999995;stroke-dasharray:none;stroke-opacity:1"
           id="path1529-3"
           cx="142.37108"
           cy="234.55634"
           r="2.1076372" />
        <rect
           style="opacity:1;fill:#06ceab;fill-opacity:1;stroke:none;stroke-width:0.35117829;stroke-linecap:round;stroke-linejoin:round;stroke-miterlimit:2.79999995;stroke-dasharray:none;stroke-opacity:1"
           id="rect1546"
           width="3.7583299"
           height="15.14721"
           x="140.53879"
           y="238.34727" />
      </g>
    </g>
  </g>
</svg>
