<?xml version="1.0" encoding="UTF-8" standalone="no"?>
<svg
   xmlns:dc="http://purl.org/dc/elements/1.1/"
   xmlns:cc="http://creativecommons.org/ns#"
   xmlns:rdf="http://www.w3.org/1999/02/22-rdf-syntax-ns#"
   xmlns:svg="http://www.w3.org/2000/svg"
   xmlns="http://www.w3.org/2000/svg"
   xmlns:sodipodi="http://sodipodi.sourceforge.net/DTD/sodipodi-0.dtd"
   xmlns:inkscape="http://www.inkscape.org/namespaces/inkscape"
   id="Layer_1"
   enable-background="new 0 0 512 512"
   height="50"
   viewBox="0 0 50 50"
   width="50"
   version="1.1"
   sodipodi:docname="arrow-l.svg"
   inkscape:version="0.92.4 (5da689c313, 2019-01-14)">
  <metadata
     id="metadata17">
    <rdf:RDF>
      <cc:Work
         rdf:about="">
        <dc:format>image/svg+xml</dc:format>
        <dc:type
           rdf:resource="http://purl.org/dc/dcmitype/StillImage" />
        <dc:title></dc:title>
      </cc:Work>
    </rdf:RDF>
  </metadata>
  <defs
     id="defs15" />
  <sodipodi:namedview
     pagecolor="#ffffff"
     bordercolor="#666666"
     borderopacity="1"
     objecttolerance="10"
     gridtolerance="10"
     guidetolerance="10"
     inkscape:pageopacity="0"
     inkscape:pageshadow="2"
     inkscape:window-width="1600"
     inkscape:window-height="837"
     id="namedview13"
     showgrid="false"
     fit-margin-top="0"
     fit-margin-left="0"
     fit-margin-right="0"
     fit-margin-bottom="0"
     inkscape:zoom="3.8191964"
     inkscape:cx="5.4237288"
     inkscape:cy="-7.5932203"
     inkscape:window-x="-8"
     inkscape:window-y="-8"
     inkscape:window-maximized="1"
     inkscape:current-layer="Layer_1" />
  <path
     inkscape:connector-curvature="0"
     id="path2"
     d="m 25.603653,6.1538325 c 1.164469,1.18025 1.805885,2.74265 1.805885,4.4008495 0,1.674 -0.651562,3.24767 -1.836322,4.4313 l -3.683914,3.68505 h 21.797994 c 3.481005,0 6.312704,2.8317 6.312704,6.3127 0,3.481 -2.831699,6.3127 -6.312704,6.3127 H 21.889303 l 3.628677,3.62867 c 1.183631,1.18365 1.861121,2.82833 1.861121,4.51473 v 0.0225 c -0.0056,1.68412 -0.658324,3.25102 -1.83632,4.41325 -1.180251,1.16447 -2.742645,1.80587 -4.400858,1.80587 -1.673996,0 -3.247662,-0.65155 -4.431292,-1.83632 L 1.516174,28.651802 C 0.50501498,27.640652 -1.5624998e-8,26.312732 -1.5624998e-8,24.984802 -1.5624998e-8,23.656882 0.50501698,22.328952 1.516174,21.317802 L 16.654266,6.1797025 c 1.188142,-1.1881198 2.841845,-1.8667498 4.536129,-1.8611198 1.68414,0.005 3.251043,0.65832 4.413257,1.8363198 z"
     style="fill:#484e4e;fill-opacity:1;stroke-width:1.00000012" />
</svg>
