<?xml version="1.0" encoding="UTF-8" standalone="no"?>
<svg
   xmlns:dc="http://purl.org/dc/elements/1.1/"
   xmlns:cc="http://creativecommons.org/ns#"
   xmlns:rdf="http://www.w3.org/1999/02/22-rdf-syntax-ns#"
   xmlns:svg="http://www.w3.org/2000/svg"
   xmlns="http://www.w3.org/2000/svg"
   xmlns:sodipodi="http://sodipodi.sourceforge.net/DTD/sodipodi-0.dtd"
   xmlns:inkscape="http://www.inkscape.org/namespaces/inkscape"
   id="Layer_1"
   enable-background="new 0 0 512 512"
   height="50"
   viewBox="0 0 50 50"
   width="50"
   version="1.1"
   sodipodi:docname="arrow-r.svg"
   inkscape:version="0.92.4 (5da689c313, 2019-01-14)">
  <metadata
     id="metadata17">
    <rdf:RDF>
      <cc:Work
         rdf:about="">
        <dc:format>image/svg+xml</dc:format>
        <dc:type
           rdf:resource="http://purl.org/dc/dcmitype/StillImage" />
        <dc:title></dc:title>
      </cc:Work>
    </rdf:RDF>
  </metadata>
  <defs
     id="defs15" />
  <sodipodi:namedview
     pagecolor="#ffffff"
     bordercolor="#666666"
     borderopacity="1"
     objecttolerance="10"
     gridtolerance="10"
     guidetolerance="10"
     inkscape:pageopacity="0"
     inkscape:pageshadow="2"
     inkscape:window-width="1600"
     inkscape:window-height="837"
     id="namedview13"
     showgrid="false"
     fit-margin-top="0"
     fit-margin-left="0"
     fit-margin-right="0"
     fit-margin-bottom="0"
     inkscape:zoom="3.8191964"
     inkscape:cx="5.4237288"
     inkscape:cy="-7.5932203"
     inkscape:window-x="-8"
     inkscape:window-y="-8"
     inkscape:window-maximized="1"
     inkscape:current-layer="Layer_1" />
  <path
     inkscape:connector-curvature="0"
     id="path2"
     d="m 24.396347,6.1538325 c -1.164469,1.18025 -1.805885,2.74265 -1.805885,4.4008495 0,1.674 0.651562,3.24767 1.836322,4.4313 l 3.683914,3.68505 H 6.3127044 c -3.4810057,0 -6.312704415625,2.8317 -6.312704415625,6.3127 0,3.481 2.831698715624999,6.3127 6.312704415625,6.3127 H 28.110697 l -3.628677,3.62867 c -1.183631,1.18365 -1.861121,2.82833 -1.861121,4.51473 v 0.0225 c 0.0056,1.68412 0.658324,3.25102 1.83632,4.41325 1.180251,1.16447 2.742645,1.80587 4.400858,1.80587 1.673996,0 3.247662,-0.65155 4.431292,-1.83632 L 48.483826,28.651802 C 49.494985,27.640652 50,26.312732 50,24.984802 c 0,-1.32792 -0.505017,-2.65585 -1.516174,-3.667 L 33.345734,6.1797025 C 32.157592,4.9915827 30.503889,4.3129527 28.809605,4.3185827 c -1.68414,0.005 -3.251043,0.65832 -4.413257,1.8363198 z"
     style="stroke-width:1.00000012;fill:#484e4e;fill-opacity:1" />
</svg>
