<?xml version="1.0" encoding="UTF-8" standalone="no"?>
<svg
   xmlns:dc="http://purl.org/dc/elements/1.1/"
   xmlns:cc="http://creativecommons.org/ns#"
   xmlns:rdf="http://www.w3.org/1999/02/22-rdf-syntax-ns#"
   xmlns:svg="http://www.w3.org/2000/svg"
   xmlns="http://www.w3.org/2000/svg"
   xmlns:sodipodi="http://sodipodi.sourceforge.net/DTD/sodipodi-0.dtd"
   xmlns:inkscape="http://www.inkscape.org/namespaces/inkscape"
   id="bold"
   enable-background="new 0 0 24 24"
   height="50"
   viewBox="0 0 2.34375 2.34375"
   width="50"
   version="1.1"
   sodipodi:docname="history.svg"
   inkscape:version="0.92.4 (5da689c313, 2019-01-14)">
  <metadata
     id="metadata13">
    <rdf:RDF>
      <cc:Work
         rdf:about="">
        <dc:format>image/svg+xml</dc:format>
        <dc:type
           rdf:resource="http://purl.org/dc/dcmitype/StillImage" />
        <dc:title></dc:title>
      </cc:Work>
    </rdf:RDF>
  </metadata>
  <defs
     id="defs11" />
  <sodipodi:namedview
     pagecolor="#ffffff"
     bordercolor="#666666"
     borderopacity="1"
     objecttolerance="10"
     gridtolerance="10"
     guidetolerance="10"
     inkscape:pageopacity="0"
     inkscape:pageshadow="2"
     inkscape:window-width="1600"
     inkscape:window-height="837"
     id="namedview9"
     showgrid="false"
     fit-margin-top="0"
     fit-margin-left="0"
     fit-margin-right="0"
     fit-margin-bottom="0"
     inkscape:zoom="0.4609375"
     inkscape:cx="256"
     inkscape:cy="256"
     inkscape:window-x="-8"
     inkscape:window-y="-8"
     inkscape:window-maximized="1"
     inkscape:current-layer="bold" />
  <g
     id="g823"
     transform="matrix(0.09765625,0,0,0.09765625,3.6621094e-5,0)"
     style="stroke-width:10.23999977">
    <path
       style="fill:#484e4e;fill-opacity:1;stroke-width:10.23999977"
       id="path2"
       d="m 12.25,2 h -1.1 C 10.82,0.85 9.76,0 8.5,0 7.24,0 6.18,0.85 5.85,2 H 4.75 C 4.34,2 4,2.34 4,2.75 v 1.5 C 4,5.21 4.79,6 5.75,6 h 5.5 C 12.21,6 13,5.21 13,4.25 V 2.75 C 13,2.34 12.66,2 12.25,2 Z"
       inkscape:connector-curvature="0" />
    <path
       style="fill:#484e4e;fill-opacity:1;stroke-width:10.23999977"
       id="path4"
       d="M 14.25,3 H 14 V 4.25 C 14,5.77 12.77,7 11.25,7 H 5.75 C 4.23,7 3,5.77 3,4.25 V 3 H 2.75 C 1.23,3 0,4.23 0,5.75 v 12.5 C 0,19.77 1.23,21 2.75,21 h 7.38 l 0.22,-1.23 c 0.1,-0.56 0.36,-1.06 0.76,-1.47 l 0.8,-0.8 H 3.75 C 3.34,17.5 3,17.16 3,16.75 3,16.34 3.34,16 3.75,16 h 9.5 c 0.05,0 0.09,0 0.14,0.02 H 13.4 L 17,12.42 V 5.75 C 17,4.23 15.77,3 14.25,3 Z m -1,11.25 H 3.75 C 3.34,14.25 3,13.91 3,13.5 3,13.09 3.34,12.75 3.75,12.75 h 9.5 c 0.41,0 0.75,0.34 0.75,0.75 0,0.41 -0.34,0.75 -0.75,0.75 z m 0,-3.25 H 3.75 C 3.34,11 3,10.66 3,10.25 3,9.84 3.34,9.5 3.75,9.5 h 9.5 C 13.66,9.5 14,9.84 14,10.25 14,10.66 13.66,11 13.25,11 Z"
       inkscape:connector-curvature="0" />
    <path
       style="fill:#484e4e;fill-opacity:1;stroke-width:10.23999977"
       id="path6"
       d="m 12.527,24 c -0.197,0 -0.389,-0.078 -0.53,-0.22 -0.173,-0.173 -0.251,-0.419 -0.208,-0.661 l 0.53,-3.005 c 0.026,-0.151 0.1,-0.291 0.208,-0.4 l 7.425,-7.424 c 0.912,-0.914 1.808,-0.667 2.298,-0.177 l 1.237,1.237 c 0.683,0.682 0.683,1.792 0,2.475 l -7.425,7.425 c -0.108,0.109 -0.248,0.182 -0.4,0.208 l -3.005,0.53 C 12.614,23.996 12.57,24 12.527,24 Z m 3.005,-1.28 h 0.01 z"
       inkscape:connector-curvature="0" />
  </g>
</svg>
