<?xml version="1.0" encoding="UTF-8" standalone="no"?>
<!-- Generator: Adobe Illustrator 19.0.0, SVG Export Plug-In . SVG Version: 6.00 Build 0)  -->

<svg
   xmlns:dc="http://purl.org/dc/elements/1.1/"
   xmlns:cc="http://creativecommons.org/ns#"
   xmlns:rdf="http://www.w3.org/1999/02/22-rdf-syntax-ns#"
   xmlns:svg="http://www.w3.org/2000/svg"
   xmlns="http://www.w3.org/2000/svg"
   xmlns:sodipodi="http://sodipodi.sourceforge.net/DTD/sodipodi-0.dtd"
   xmlns:inkscape="http://www.inkscape.org/namespaces/inkscape"
   version="1.1"
   id="Capa_1"
   x="0px"
   y="0px"
   viewBox="0 0 49.999999 49.999999"
   xml:space="preserve"
   sodipodi:docname="settings.svg"
   width="50"
   height="50"
   inkscape:version="0.92.4 (5da689c313, 2019-01-14)"><metadata
   id="metadata39"><rdf:RDF><cc:Work
       rdf:about=""><dc:format>image/svg+xml</dc:format><dc:type
         rdf:resource="http://purl.org/dc/dcmitype/StillImage" /><dc:title></dc:title></cc:Work></rdf:RDF></metadata><defs
   id="defs37" /><sodipodi:namedview
   pagecolor="#ffffff"
   bordercolor="#666666"
   borderopacity="1"
   objecttolerance="10"
   gridtolerance="10"
   guidetolerance="10"
   inkscape:pageopacity="0"
   inkscape:pageshadow="2"
   inkscape:window-width="1600"
   inkscape:window-height="837"
   id="namedview35"
   showgrid="false"
   fit-margin-top="0"
   fit-margin-left="0"
   fit-margin-right="0"
   fit-margin-bottom="0"
   inkscape:zoom="0.46093569"
   inkscape:cx="249.29792"
   inkscape:cy="256.00074"
   inkscape:window-x="-8"
   inkscape:window-y="-8"
   inkscape:window-maximized="1"
   inkscape:current-layer="Capa_1" />
<path
   style="fill:#484e4e;fill-opacity:1;stroke-width:1"
   d="m 48.500558,30.479085 -4.595787,-3.59374 c 0.14248,-1.25429 0.14248,-2.5207 0,-3.77499 l 4.599986,-3.59579 c 0.862009,-0.69424 1.092379,-1.91161 0.543748,-2.87294 L 44.267269,8.3770951 c -0.550682,-0.96738 -1.72353,-1.38984 -2.764542,-0.99579 l -5.416683,2.17919 c -1.017868,-0.73848 -2.108197,-1.37158 -3.25419,-1.88955 l -0.831247,-5.75418 C 31.850705,0.81208504 30.902954,-0.00900496 29.788113,7.5046749e-5 H 20.204841 C 19.099278,-0.00692496 18.159144,0.80534504 18.004847,1.9000651 l -0.833298,5.77079 c -1.142477,0.52294 -2.231048,1.15654 -3.24999,1.89169 l -5.431332,-2.18339 c -1.03027,-0.40615 -2.202044,0.0112 -2.743742,0.97705 L 0.96105043,16.635375 c -0.5633772,0.96289 -0.3314443,2.19365 0.54374837,2.88544 l 4.5957872,3.59374 c -0.143847,1.2542 -0.143847,2.52079 0,3.77499 l -4.5999864,3.59374 c -0.86347397,0.69326 -1.09491857,1.91132 -0.54579917,2.87294 l 4.77918457,8.26667 c 0.549999,0.96807 1.72353,1.39082 2.764543,0.9958 l 5.416683,-2.17919 c 1.018747,0.73886 2.10976,1.37265 3.25624,1.89169 l 0.833299,5.74998 c 0.146679,1.10176 1.088571,1.92324 2.199993,1.91875 h 9.583273 c 1.107613,0.009 2.050775,-0.80332 2.206243,-1.9 l 0.833298,-5.77078 c 1.14238,-0.52314 2.230853,-1.15673 3.249991,-1.89169 l 5.437484,2.18544 c 1.03027,0.40517 2.201458,-0.0119 2.743741,-0.97705 l 4.799986,-8.31247 c 0.537401,-0.95996 0.301171,-2.16757 -0.558201,-2.85429 z m -23.50413,4.93748 c -5.752912,0 -10.416668,-4.66365 -10.416668,-10.41666 0,-5.75301 4.663658,-10.41667 10.416668,-10.41667 5.753011,0 10.416669,4.66366 10.416669,10.41667 -0.0069,5.75017 -4.666588,10.40983 -10.416669,10.41666 z"
   id="path2"
   inkscape:connector-curvature="0" />
<g
   id="g4"
   transform="translate(-6.7030887,-462.00175)">
</g>
<g
   id="g6"
   transform="translate(-6.7030887,-462.00175)">
</g>
<g
   id="g8"
   transform="translate(-6.7030887,-462.00175)">
</g>
<g
   id="g10"
   transform="translate(-6.7030887,-462.00175)">
</g>
<g
   id="g12"
   transform="translate(-6.7030887,-462.00175)">
</g>
<g
   id="g14"
   transform="translate(-6.7030887,-462.00175)">
</g>
<g
   id="g16"
   transform="translate(-6.7030887,-462.00175)">
</g>
<g
   id="g18"
   transform="translate(-6.7030887,-462.00175)">
</g>
<g
   id="g20"
   transform="translate(-6.7030887,-462.00175)">
</g>
<g
   id="g22"
   transform="translate(-6.7030887,-462.00175)">
</g>
<g
   id="g24"
   transform="translate(-6.7030887,-462.00175)">
</g>
<g
   id="g26"
   transform="translate(-6.7030887,-462.00175)">
</g>
<g
   id="g28"
   transform="translate(-6.7030887,-462.00175)">
</g>
<g
   id="g30"
   transform="translate(-6.7030887,-462.00175)">
</g>
<g
   id="g32"
   transform="translate(-6.7030887,-462.00175)">
</g>
</svg>